<?xml version="1.0" encoding="UTF-8"?>
<svg xmlns="http://www.w3.org/2000/svg" xmlns:xlink="http://www.w3.org/1999/xlink" width="16pt" height="16pt" viewBox="0 0 16 16" version="1.1">
<g id="surface1">
<path style=" stroke:none;fill-rule:evenodd;fill:rgb(0%,0%,0%);fill-opacity:1;" d="M 1.898438 4.589844 C 1.917969 4.394531 1.84375 4.199219 1.695312 4.070312 L 0.203125 2.269531 L 0.203125 2 L 4.839844 2 L 8.425781 9.863281 L 11.578125 2 L 16 2 L 16 2.269531 L 14.722656 3.492188 C 14.613281 3.578125 14.558594 3.714844 14.582031 3.851562 L 14.582031 12.851562 C 14.558594 12.988281 14.613281 13.125 14.722656 13.207031 L 15.96875 14.433594 L 15.96875 14.703125 L 9.695312 14.703125 L 9.695312 14.433594 L 10.988281 13.179688 C 11.113281 13.050781 11.113281 13.015625 11.113281 12.820312 L 11.113281 5.546875 L 7.523438 14.671875 L 7.035156 14.671875 L 2.851562 5.546875 L 2.851562 11.664062 C 2.820312 11.921875 2.902344 12.179688 3.085938 12.363281 L 4.765625 14.402344 L 4.765625 14.671875 L 0 14.671875 L 0 14.402344 L 1.679688 12.363281 C 1.859375 12.179688 1.941406 11.917969 1.898438 11.664062 Z M 1.898438 4.589844 "/>
</g>
</svg>
